<?xml version="1.0" encoding="UTF-8" standalone="no"?><svg xmlns="http://www.w3.org/2000/svg" xmlns:xlink="http://www.w3.org/1999/xlink" contentStyleType="text/css" height="636px" preserveAspectRatio="none" style="width:538px;height:636px;background:#FFFFFF;" version="1.1" viewBox="0 0 538 636" width="538px" zoomAndPan="magnify"><defs/><g><rect fill="#FFFFFF" height="425.0371" style="stroke:#181818;stroke-width:1.0;" width="10" x="89.5" y="112.7988"/><rect fill="#FFFFFF" height="381.7266" style="stroke:#181818;stroke-width:1.0;" width="10" x="233.5" y="142.1094"/><rect fill="#FFFFFF" height="323.1055" style="stroke:#181818;stroke-width:1.0;" width="10" x="303.5" y="171.4199"/><rect fill="#FFFFFF" height="29.3105" style="stroke:#181818;stroke-width:1.0;" width="10" x="436.5" y="200.7305"/><rect fill="#FFFFFF" height="29.3105" style="stroke:#181818;stroke-width:1.0;" width="10" x="436.5" y="259.3516"/><rect fill="#FFFFFF" height="29.3105" style="stroke:#181818;stroke-width:1.0;" width="10" x="436.5" y="392.5938"/><rect fill="#FFFFFF" height="29.3105" style="stroke:#181818;stroke-width:1.0;" width="10" x="436.5" y="451.2148"/><rect fill="#FFFFFF" height="14" style="stroke:#181818;stroke-width:1.0;" width="10" x="495.5" y="342.2832"/><rect fill="none" height="60.6211" style="stroke:#000000;stroke-width:1.5;" width="261.5" x="271" y="303.6621"/><line style="stroke:#181818;stroke-width:0.5;stroke-dasharray:5.0,5.0;" x1="23" x2="23" y1="81.4883" y2="555.8359"/><line style="stroke:#181818;stroke-width:0.5;stroke-dasharray:5.0,5.0;" x1="94" x2="94" y1="81.4883" y2="555.8359"/><line style="stroke:#181818;stroke-width:0.5;stroke-dasharray:5.0,5.0;" x1="238" x2="238" y1="81.4883" y2="555.8359"/><line style="stroke:#181818;stroke-width:0.5;stroke-dasharray:5.0,5.0;" x1="308" x2="308" y1="81.4883" y2="555.8359"/><line style="stroke:#181818;stroke-width:0.5;stroke-dasharray:5.0,5.0;" x1="441.5" x2="441.5" y1="81.4883" y2="555.8359"/><line style="stroke:#181818;stroke-width:0.5;stroke-dasharray:5.0,5.0;" x1="500.5" x2="500.5" y1="81.4883" y2="555.8359"/><text fill="#000000" font-family="sans-serif" font-size="14" lengthAdjust="spacing" textLength="31" x="5" y="78.5352">User</text><ellipse cx="23.5" cy="13.5" fill="#E2E2F0" rx="8" ry="8" style="stroke:#181818;stroke-width:0.5;"/><path d="M23.5,21.5 L23.5,48.5 M10.5,29.5 L36.5,29.5 M23.5,48.5 L10.5,63.5 M23.5,48.5 L36.5,63.5 " fill="none" style="stroke:#181818;stroke-width:0.5;"/><text fill="#000000" font-family="sans-serif" font-size="14" lengthAdjust="spacing" textLength="31" x="5" y="568.3711">User</text><ellipse cx="23.5" cy="579.8242" fill="#E2E2F0" rx="8" ry="8" style="stroke:#181818;stroke-width:0.5;"/><path d="M23.5,587.8242 L23.5,614.8242 M10.5,595.8242 L36.5,595.8242 M23.5,614.8242 L10.5,629.8242 M23.5,614.8242 L36.5,629.8242 " fill="none" style="stroke:#181818;stroke-width:0.5;"/><rect fill="#E2E2F0" height="30.4883" rx="2.5" ry="2.5" style="stroke:#181818;stroke-width:0.5;" width="85" x="52" y="50"/><text fill="#000000" font-family="sans-serif" font-size="14" lengthAdjust="spacing" textLength="71" x="59" y="70.5352">GameView</text><rect fill="#E2E2F0" height="30.4883" rx="2.5" ry="2.5" style="stroke:#181818;stroke-width:0.5;" width="85" x="52" y="554.8359"/><text fill="#000000" font-family="sans-serif" font-size="14" lengthAdjust="spacing" textLength="71" x="59" y="575.3711">GameView</text><rect fill="#E2E2F0" height="30.4883" rx="2.5" ry="2.5" style="stroke:#181818;stroke-width:0.5;" width="53" x="212" y="50"/><text fill="#000000" font-family="sans-serif" font-size="14" lengthAdjust="spacing" textLength="39" x="219" y="70.5352">Game</text><rect fill="#E2E2F0" height="30.4883" rx="2.5" ry="2.5" style="stroke:#181818;stroke-width:0.5;" width="53" x="212" y="554.8359"/><text fill="#000000" font-family="sans-serif" font-size="14" lengthAdjust="spacing" textLength="39" x="219" y="575.3711">Game</text><rect fill="#E2E2F0" height="30.4883" rx="2.5" ry="2.5" style="stroke:#181818;stroke-width:0.5;" width="55" x="281" y="50"/><text fill="#000000" font-family="sans-serif" font-size="14" lengthAdjust="spacing" textLength="41" x="288" y="70.5352">Player</text><rect fill="#E2E2F0" height="30.4883" rx="2.5" ry="2.5" style="stroke:#181818;stroke-width:0.5;" width="55" x="281" y="554.8359"/><text fill="#000000" font-family="sans-serif" font-size="14" lengthAdjust="spacing" textLength="41" x="288" y="575.3711">Player</text><rect fill="#E2E2F0" height="30.4883" rx="2.5" ry="2.5" style="stroke:#181818;stroke-width:0.5;" width="54" x="414.5" y="50"/><text fill="#000000" font-family="sans-serif" font-size="14" lengthAdjust="spacing" textLength="40" x="421.5" y="70.5352">Room</text><rect fill="#E2E2F0" height="30.4883" rx="2.5" ry="2.5" style="stroke:#181818;stroke-width:0.5;" width="54" x="414.5" y="554.8359"/><text fill="#000000" font-family="sans-serif" font-size="14" lengthAdjust="spacing" textLength="40" x="421.5" y="575.3711">Room</text><rect fill="#E2E2F0" height="30.4883" rx="2.5" ry="2.5" style="stroke:#181818;stroke-width:0.5;" width="44" x="478.5" y="50"/><text fill="#000000" font-family="sans-serif" font-size="14" lengthAdjust="spacing" textLength="30" x="485.5" y="70.5352">Item</text><rect fill="#E2E2F0" height="30.4883" rx="2.5" ry="2.5" style="stroke:#181818;stroke-width:0.5;" width="44" x="478.5" y="554.8359"/><text fill="#000000" font-family="sans-serif" font-size="14" lengthAdjust="spacing" textLength="30" x="485.5" y="575.3711">Item</text><rect fill="#FFFFFF" height="425.0371" style="stroke:#181818;stroke-width:1.0;" width="10" x="89.5" y="112.7988"/><rect fill="#FFFFFF" height="381.7266" style="stroke:#181818;stroke-width:1.0;" width="10" x="233.5" y="142.1094"/><rect fill="#FFFFFF" height="323.1055" style="stroke:#181818;stroke-width:1.0;" width="10" x="303.5" y="171.4199"/><rect fill="#FFFFFF" height="29.3105" style="stroke:#181818;stroke-width:1.0;" width="10" x="436.5" y="200.7305"/><rect fill="#FFFFFF" height="29.3105" style="stroke:#181818;stroke-width:1.0;" width="10" x="436.5" y="259.3516"/><rect fill="#FFFFFF" height="29.3105" style="stroke:#181818;stroke-width:1.0;" width="10" x="436.5" y="392.5938"/><rect fill="#FFFFFF" height="29.3105" style="stroke:#181818;stroke-width:1.0;" width="10" x="436.5" y="451.2148"/><rect fill="#FFFFFF" height="14" style="stroke:#181818;stroke-width:1.0;" width="10" x="495.5" y="342.2832"/><polygon fill="#181818" points="77.5,108.7988,87.5,112.7988,77.5,116.7988,81.5,112.7988" style="stroke:#181818;stroke-width:1.0;"/><line style="stroke:#181818;stroke-width:1.0;" x1="23.5" x2="83.5" y1="112.7988" y2="112.7988"/><text fill="#000000" font-family="sans-serif" font-size="13" lengthAdjust="spacing" textLength="41" x="30.5" y="108.0566">Input()</text><polygon fill="#181818" points="221.5,138.1094,231.5,142.1094,221.5,146.1094,225.5,142.1094" style="stroke:#181818;stroke-width:1.0;"/><line style="stroke:#181818;stroke-width:1.0;" x1="99.5" x2="227.5" y1="142.1094" y2="142.1094"/><text fill="#000000" font-family="sans-serif" font-size="13" lengthAdjust="spacing" textLength="41" x="106.5" y="137.3672">Move()</text><polygon fill="#181818" points="291.5,167.4199,301.5,171.4199,291.5,175.4199,295.5,171.4199" style="stroke:#181818;stroke-width:1.0;"/><line style="stroke:#181818;stroke-width:1.0;" x1="243.5" x2="297.5" y1="171.4199" y2="171.4199"/><text fill="#000000" font-family="sans-serif" font-size="13" lengthAdjust="spacing" textLength="41" x="250.5" y="166.6777">Move()</text><polygon fill="#181818" points="424.5,196.7305,434.5,200.7305,424.5,204.7305,428.5,200.7305" style="stroke:#181818;stroke-width:1.0;"/><line style="stroke:#181818;stroke-width:1.0;" x1="313.5" x2="430.5" y1="200.7305" y2="200.7305"/><text fill="#000000" font-family="sans-serif" font-size="13" lengthAdjust="spacing" textLength="104" x="320.5" y="195.9883">HasConnection()</text><polygon fill="#181818" points="324.5,226.041,314.5,230.041,324.5,234.041,320.5,230.041" style="stroke:#181818;stroke-width:1.0;"/><line style="stroke:#181818;stroke-width:1.0;stroke-dasharray:2.0,2.0;" x1="318.5" x2="440.5" y1="230.041" y2="230.041"/><text fill="#000000" font-family="sans-serif" font-size="13" lengthAdjust="spacing" textLength="28" x="330.5" y="225.2988">bool</text><polygon fill="#181818" points="424.5,255.3516,434.5,259.3516,424.5,263.3516,428.5,259.3516" style="stroke:#181818;stroke-width:1.0;"/><line style="stroke:#181818;stroke-width:1.0;" x1="313.5" x2="430.5" y1="259.3516" y2="259.3516"/><text fill="#000000" font-family="sans-serif" font-size="13" lengthAdjust="spacing" textLength="60" x="320.5" y="254.6094">HasItem()</text><polygon fill="#181818" points="324.5,284.6621,314.5,288.6621,324.5,292.6621,320.5,288.6621" style="stroke:#181818;stroke-width:1.0;"/><line style="stroke:#181818;stroke-width:1.0;stroke-dasharray:2.0,2.0;" x1="318.5" x2="440.5" y1="288.6621" y2="288.6621"/><text fill="#000000" font-family="sans-serif" font-size="13" lengthAdjust="spacing" textLength="28" x="330.5" y="283.9199">bool</text><path d="M271,303.6621 L338,303.6621 L338,310.9727 L328,320.9727 L271,320.9727 L271,303.6621 " fill="#EEEEEE" style="stroke:#000000;stroke-width:1.5;"/><rect fill="none" height="60.6211" style="stroke:#000000;stroke-width:1.5;" width="261.5" x="271" y="303.6621"/><text fill="#000000" font-family="sans-serif" font-size="13" font-weight="bold" lengthAdjust="spacing" textLength="22" x="286" y="317.2305">opt</text><text fill="#000000" font-family="sans-serif" font-size="11" font-weight="bold" lengthAdjust="spacing" textLength="54" x="353" y="316.2969">[HasItem]</text><polygon fill="#181818" points="483.5,338.2832,493.5,342.2832,483.5,346.2832,487.5,342.2832" style="stroke:#181818;stroke-width:1.0;"/><line style="stroke:#181818;stroke-width:1.0;" x1="313.5" x2="489.5" y1="342.2832" y2="342.2832"/><text fill="#000000" font-family="sans-serif" font-size="13" lengthAdjust="spacing" textLength="56" x="320.5" y="337.541">Interact()</text><polygon fill="#181818" points="324.5,352.2832,314.5,356.2832,324.5,360.2832,320.5,356.2832" style="stroke:#181818;stroke-width:1.0;"/><line style="stroke:#181818;stroke-width:1.0;stroke-dasharray:2.0,2.0;" x1="318.5" x2="499.5" y1="356.2832" y2="356.2832"/><polygon fill="#181818" points="424.5,388.5938,434.5,392.5938,424.5,396.5938,428.5,392.5938" style="stroke:#181818;stroke-width:1.0;"/><line style="stroke:#181818;stroke-width:1.0;" x1="313.5" x2="430.5" y1="392.5938" y2="392.5938"/><text fill="#000000" font-family="sans-serif" font-size="13" lengthAdjust="spacing" textLength="98" x="320.5" y="387.8516">IsPartOfBorder()</text><polygon fill="#181818" points="324.5,417.9043,314.5,421.9043,324.5,425.9043,320.5,421.9043" style="stroke:#181818;stroke-width:1.0;"/><line style="stroke:#181818;stroke-width:1.0;stroke-dasharray:2.0,2.0;" x1="318.5" x2="440.5" y1="421.9043" y2="421.9043"/><text fill="#000000" font-family="sans-serif" font-size="13" lengthAdjust="spacing" textLength="28" x="330.5" y="417.1621">bool</text><polygon fill="#181818" points="424.5,447.2148,434.5,451.2148,424.5,455.2148,428.5,451.2148" style="stroke:#181818;stroke-width:1.0;"/><line style="stroke:#181818;stroke-width:1.0;" x1="313.5" x2="430.5" y1="451.2148" y2="451.2148"/><text fill="#000000" font-family="sans-serif" font-size="13" lengthAdjust="spacing" textLength="93" x="320.5" y="446.4727">OutsideRoom()</text><polygon fill="#181818" points="324.5,476.5254,314.5,480.5254,324.5,484.5254,320.5,480.5254" style="stroke:#181818;stroke-width:1.0;"/><line style="stroke:#181818;stroke-width:1.0;stroke-dasharray:2.0,2.0;" x1="318.5" x2="440.5" y1="480.5254" y2="480.5254"/><text fill="#000000" font-family="sans-serif" font-size="13" lengthAdjust="spacing" textLength="28" x="330.5" y="475.7832">bool</text><polygon fill="#181818" points="254.5,490.5254,244.5,494.5254,254.5,498.5254,250.5,494.5254" style="stroke:#181818;stroke-width:1.0;"/><line style="stroke:#181818;stroke-width:1.0;stroke-dasharray:2.0,2.0;" x1="248.5" x2="307.5" y1="494.5254" y2="494.5254"/><polygon fill="#181818" points="110.5,519.8359,100.5,523.8359,110.5,527.8359,106.5,523.8359" style="stroke:#181818;stroke-width:1.0;"/><line style="stroke:#181818;stroke-width:1.0;" x1="104.5" x2="237.5" y1="523.8359" y2="523.8359"/><text fill="#000000" font-family="sans-serif" font-size="13" lengthAdjust="spacing" textLength="110" x="116.5" y="519.0938">NotifyObservers()</text><polygon fill="#181818" points="34.5,533.8359,24.5,537.8359,34.5,541.8359,30.5,537.8359" style="stroke:#181818;stroke-width:1.0;"/><line style="stroke:#181818;stroke-width:1.0;stroke-dasharray:2.0,2.0;" x1="28.5" x2="93.5" y1="537.8359" y2="537.8359"/><!--MD5=[6aa53dfaa911dbfb94c6b637e45a2215]
@startuml

actor User
participant "GameView" as GV
participant "Game" as G
participant "Player" as P
participant "Room" as R
participant "Item" as I

User -> GV : Input()
activate GV

GV -> G : Move()
activate G

G -> P : Move()
activate P

P -> R : HasConnection()
activate R
R - -> P : bool
deactivate R
P -> R : HasItem()
activate R
R - -> P : bool
deactivate R

opt HasItem
P -> I : Interact()
activate I
P <- - I 
deactivate I
end

P -> R : IsPartOfBorder()
activate R
R - -> P : bool
deactivate R
P -> R : OutsideRoom()
activate R
R - -> P : bool
deactivate R

P - -> G : 
deactivate P

G -> GV : NotifyObservers()
deactivate G

GV - -> User
deactivate GV


@enduml

PlantUML version 1.2022.7(Mon Aug 22 19:01:30 CEST 2022)
(GPL source distribution)
Java Runtime: OpenJDK Runtime Environment
JVM: OpenJDK 64-Bit Server VM
Default Encoding: UTF-8
Language: en
Country: NL
--></g></svg>